<svg viewBox="0 0 68 96" fill="none" xmlns="http://www.w3.org/2000/svg">
<path d="M20.3998 0.399902H6.79994C3.04628 0.399902 0 3.4463 0 7.19984V88.7997C0 92.5534 3.0464 95.5997 6.79994 95.5997H20.3999C24.157 95.5997 27.2 92.5568 27.2 88.7997V7.19984C27.1999 3.4463 24.1568 0.399902 20.3998 0.399902ZM61.1998 0.399902H47.5999C43.8429 0.399902 40.7999 3.4463 40.7999 7.19984V88.7997C40.7999 92.5534 43.8429 95.5997 47.5999 95.5997H61.1999C64.957 95.5997 68 92.5568 68 88.7997V7.19984C67.9999 3.4463 64.9569 0.399902 61.1998 0.399902Z" fill="#fff"/>
</svg>
